<?xml version="1.0" encoding="UTF-8" standalone="no"?>
<svg width="25px" height="25px" viewBox="0 0 25 25" version="1.1" xmlns="http://www.w3.org/2000/svg" xmlns:xlink="http://www.w3.org/1999/xlink" xmlns:sketch="http://www.bohemiancoding.com/sketch/ns">
    <!-- Generator: Sketch 3.4.2 (15855) - http://www.bohemiancoding.com/sketch -->
    <title>Facebook__x28_alt_x29_</title>
    <desc>Created with Sketch.</desc>
    <defs></defs>
    <g id="View---Landing" stroke="none" stroke-width="1" fill="none" fill-rule="evenodd" sketch:type="MSPage">
        <g id="Landing-Copy" sketch:type="MSArtboardGroup" transform="translate(-422.000000, -3045.000000)" fill="#E0E0E1">
            <g id="Footer" sketch:type="MSLayerGroup" transform="translate(0.000000, 2924.000000)">
                <g id="karenmb123@gmail.com-+-Karen-Miscall-Bannon" transform="translate(421.000000, 75.000000)" sketch:type="MSShapeGroup">
                    <path d="M26,50.1669444 C26,47.9775 24.0233333,46 21.8333333,46 L5.16666667,46 C2.97666667,46 1,47.9775 1,50.1669444 L1,66.8330556 C1,69.0225 2.97666667,71 5.16694444,71 L13.5,71 L13.5,61.5555556 L10.4444444,61.5555556 L10.4444444,57.3888889 L13.5,57.3888889 L13.5,55.7655556 C13.5,52.9658333 15.6022222,50.4444444 18.1875,50.4444444 L21.5555556,50.4444444 L21.5555556,54.6111111 L18.1875,54.6111111 C17.8188889,54.6111111 17.3888889,55.0586111 17.3888889,55.7288889 L17.3888889,57.3888889 L21.5555556,57.3888889 L21.5555556,61.5555556 L17.3888889,61.5555556 L17.3888889,71 L21.8333333,71 C24.0233333,71 26,69.0225 26,66.8330556 L26,50.1669444 L26,50.1669444 Z" id="Facebook__x28_alt_x29_"></path>
                </g>
            </g>
        </g>
    </g>
</svg>