<?xml version="1.0" encoding="UTF-8" standalone="no"?>
<svg width="24px" height="14px" viewBox="0 0 24 14" version="1.1" xmlns="http://www.w3.org/2000/svg" xmlns:xlink="http://www.w3.org/1999/xlink" xmlns:sketch="http://www.bohemiancoding.com/sketch/ns">
    <!-- Generator: Sketch 3.4.2 (15855) - http://www.bohemiancoding.com/sketch -->
    <title>menu btn</title>
    <desc>Created with Sketch.</desc>
    <defs></defs>
    <g id="View---Landing" stroke="none" stroke-width="1" fill="none" fill-rule="evenodd" sketch:type="MSPage">
        <g id="128" sketch:type="MSArtboardGroup" transform="translate(-52.000000, -57.000000)" fill="#E1F2D3">
            <path d="M52,64 C52,63.4477153 52.4474692,63 53.0006946,63 L74.9993054,63 C75.5519738,63 76,63.4438648 76,64 C76,64.5522847 75.5525308,65 74.9993054,65 L53.0006946,65 C52.4480262,65 52,64.5561352 52,64 Z M52,70 C52,69.4477153 52.4474692,69 53.0006946,69 L74.9993054,69 C75.5519738,69 76,69.4438648 76,70 C76,70.5522847 75.5525308,71 74.9993054,71 L53.0006946,71 C52.4480262,71 52,70.5561352 52,70 Z M52,58 C52,57.4477153 52.4474692,57 53.0006946,57 L74.9993054,57 C75.5519738,57 76,57.4438648 76,58 C76,58.5522847 75.5525308,59 74.9993054,59 L53.0006946,59 C52.4480262,59 52,58.5561352 52,58 Z" id="menu-btn" sketch:type="MSShapeGroup"></path>
        </g>
    </g>
</svg>